<svg version="1.1" id="Layer_1" xmlns="http://www.w3.org/2000/svg" xmlns:xlink="http://www.w3.org/1999/xlink" x="0px" y="0px"
	 width="100%" viewBox="0 0 144 144" enable-background="new 0 0 144 144" xml:space="preserve">
<path fill="#000000" opacity="1.000000" stroke="none" 
	d="
M1.000000,87.468651 
	C6.354041,87.493828 13.088208,81.345596 14.664324,75.009338 
	C20.650309,50.944599 35.563194,35.142879 59.203823,27.721016 
	C68.463905,24.813856 77.681976,25.794613 87.142380,27.746553 
	C100.013382,30.402191 108.480911,38.371548 115.663620,48.435711 
	C116.812569,50.045578 118.259148,51.032238 120.065704,51.455616 
	C129.263229,53.611115 137.160675,57.770817 142.696579,65.732323 
	C143.041397,66.228210 143.797699,66.437973 144.681274,66.890427 
	C145.000000,70.030594 145.000000,73.061188 145.000000,76.545891 
	C142.479904,72.389565 140.543167,67.526962 136.714340,63.596142 
	C131.577805,58.322765 125.500877,55.328789 118.384468,54.428181 
	C116.078674,54.136375 114.864632,53.250511 113.835182,51.317520 
	C111.724083,47.353577 109.349129,43.544666 105.361115,40.855991 
	C101.723198,43.927994 97.899956,44.231903 94.170494,41.177784 
	C91.555664,39.036453 89.661865,39.915482 87.883530,42.203175 
	C87.577286,42.597145 87.222389,42.956566 86.944252,43.368599 
	C84.845444,46.477837 82.525963,50.121304 78.252037,47.773323 
	C73.888840,45.376297 75.654617,41.211853 77.009064,37.147217 
	C73.242905,37.543705 69.739410,38.105907 66.379845,39.500286 
	C65.986916,41.565495 67.856293,42.424530 68.414474,43.911774 
	C69.211311,46.034893 69.974937,48.019035 68.080887,49.894127 
	C66.429031,51.529430 64.229248,52.678516 62.231052,51.331184 
	C55.071686,46.503819 50.942127,49.066853 46.795540,55.865051 
	C43.225525,61.717972 40.432796,61.538818 34.819622,57.371532 
	C31.478708,66.621101 30.345928,76.348984 28.012182,85.630348 
	C25.513609,86.363319 23.856081,84.901093 22.015186,84.370956 
	C15.963444,82.628181 11.656953,84.002983 8.118519,88.995712 
	C3.178484,95.966103 3.633116,109.629349 9.025932,116.266411 
	C13.437467,121.695816 19.465714,122.217476 24.485909,117.441116 
	C27.522139,114.552376 30.729481,114.006966 34.516018,115.757698 
	C36.443695,116.648972 38.268654,117.947678 40.526466,117.923943 
	C40.801907,117.686852 41.213352,117.511742 41.267078,117.260216 
	C42.543751,111.283340 46.027691,108.933380 52.231583,109.897514 
	C55.144535,110.350212 58.024757,110.207146 61.046673,111.007797 
	C64.571861,111.941772 64.345551,113.536407 64.225502,115.826973 
	C63.907043,121.903358 64.572540,122.648872 70.807304,122.673233 
	C75.801941,122.692749 80.805809,122.862679 85.788750,122.620094 
	C90.364220,122.397354 94.744110,122.968819 98.947281,124.698410 
	C102.799904,126.283745 106.482658,125.300217 109.224068,122.906960 
	C112.638512,119.926117 116.460999,118.436935 120.631683,117.208687 
	C124.302643,116.127602 127.734207,114.558220 130.405685,111.521156 
	C131.525055,110.248589 132.245956,109.133812 131.707016,107.595528 
	C130.304825,103.593269 133.087708,100.405350 133.744217,96.813026 
	C134.086868,94.938179 136.144943,94.886787 137.819946,94.604500 
	C140.561661,94.142426 143.462036,93.792641 144.746796,90.246994 
	C145.000000,94.024544 145.000000,98.049088 144.662323,102.609772 
	C140.742722,103.474686 138.341888,106.977936 134.462677,107.001518 
	C134.233047,108.737434 135.863281,110.902718 133.450073,112.676369 
	C130.138031,115.110641 127.876236,118.061615 130.887268,122.368103 
	C131.221115,122.845596 130.887283,123.993095 130.566116,124.693726 
	C127.608398,131.146179 126.683693,138.043594 126.000000,145.000000 
	C104.312439,145.000000 82.624878,145.000000 60.626091,144.664459 
	C63.403366,134.755463 64.486938,125.132523 60.315845,115.512413 
	C59.151005,115.732361 59.611015,118.872818 57.265133,118.634895 
	C55.561279,117.148888 57.610291,114.721184 55.900909,113.263527 
	C53.711662,114.736732 55.029148,118.197830 52.348999,119.391907 
	C50.660465,117.394806 50.835533,115.013863 50.408104,112.391815 
	C48.114109,115.116112 51.181042,118.482025 48.528957,120.540581 
	C45.668465,119.994415 46.004086,117.150063 44.759315,114.591576 
	C44.292763,121.587044 46.178448,125.108971 52.308445,127.219460 
	C57.065216,128.857147 56.835163,130.868637 54.548237,134.447601 
	C52.416058,137.784378 50.827724,141.468674 49.000000,145.000000 
	C41.645748,145.000000 34.291496,145.000000 26.402678,144.606781 
	C24.326143,137.508270 22.784176,130.802994 21.244713,124.108597 
	C14.201420,124.021378 8.658725,121.678452 4.937908,115.792282 
	C4.036407,114.366142 2.786149,113.261932 1.000000,113.000000 
	C1.000000,104.645767 1.000000,96.291534 1.000000,87.468651 
z"/>
<path fill="#000000" opacity="1.000000" stroke="none" 
	d="
M138.497910,145.000000 
	C139.670532,137.191452 138.174316,129.592514 135.812485,122.252617 
	C134.825287,119.184647 135.493546,117.882896 137.815872,116.248466 
	C140.216858,114.558693 142.283386,112.393700 144.748108,110.218292 
	C145.000000,121.666710 145.000000,133.333420 145.000000,145.000000 
	C142.948029,145.000000 140.971924,145.000000 138.497910,145.000000 
z"/>
<path fill="#000000" opacity="1.000000" stroke="none" 
	d="
M97.818336,109.667664 
	C96.104744,111.667130 94.669518,113.425125 93.216286,115.205170 
	C90.103676,111.737602 90.532043,106.239532 93.977989,103.499008 
	C97.899727,100.380089 103.437935,101.394897 107.101982,106.174591 
	C104.160835,107.592964 100.376007,106.659935 97.818336,109.667664 
z"/>
<path fill="#000000" opacity="1.000000" stroke="none" 
	d="
M62.930267,70.989655 
	C60.326294,72.830467 58.018829,73.444992 55.119251,72.576134 
	C51.636448,71.532524 48.286011,73.398399 44.863426,73.905983 
	C42.490063,74.257965 40.217636,75.705727 37.611721,74.341019 
	C49.320034,69.533218 61.653843,67.643227 74.151321,66.381607 
	C71.343773,70.157433 66.386993,68.042885 62.930267,70.989655 
z"/>
<path fill="#000000" opacity="1.000000" stroke="none" 
	d="
M101.968185,59.686634 
	C106.387970,58.972485 110.345955,57.938240 114.399887,58.305958 
	C114.735413,60.158157 113.529488,60.066799 112.622635,60.296883 
	C108.374771,61.374653 103.613487,60.982498 100.280876,64.710266 
	C99.917122,65.117157 98.923393,65.379623 98.428413,65.184669 
	C94.184547,63.513176 89.842758,64.428009 85.436447,64.646217 
	C90.233284,60.831726 96.214729,61.368568 101.968185,59.686634 
z"/>
</svg>